<?xml version="1.0" standalone="no"?>
<!DOCTYPE svg PUBLIC "-//W3C//DTD SVG 20010904//EN"
 "http://www.w3.org/TR/2001/REC-SVG-20010904/DTD/svg10.dtd">
<svg version="1.0" xmlns="http://www.w3.org/2000/svg"
 width="494.000000pt" height="640.000000pt" viewBox="0 0 494.000000 640.000000"
 preserveAspectRatio="xMidYMid meet">
<metadata>
Created by potrace 1.15, written by Peter Selinger 2001-2017
</metadata>
<g transform="translate(0.000000,640.000000) scale(0.100000,-0.100000)"
fill="#000000" stroke="none">
<path d="M533 5443 c3 -10 8 -28 12 -40 6 -22 4 -23 -64 -23 -57 0 -71 -3 -71
-15 0 -8 15 -75 34 -148 19 -72 110 -429 201 -792 216 -855 212 -839 234 -915
11 -36 22 -77 26 -92 l5 -28 259 0 258 0 13 48 c24 93 46 173 266 950 26 94
51 172 55 172 3 0 14 -30 24 -67 18 -67 19 -67 30 -40 11 27 15 15 63 -155 82
-292 211 -746 236 -828 l22 -75 257 0 258 0 99 390 c54 215 164 651 244 970
81 319 149 588 152 598 5 15 -3 17 -66 17 l-72 0 6 28 c4 15 9 35 12 45 5 16
-5 17 -120 17 l-125 0 -11 -40 c-11 -40 -11 -40 -60 -40 -27 0 -51 -4 -54 -8
-6 -10 -3 2 -126 -582 -50 -239 -94 -444 -99 -454 -5 -14 -15 8 -35 85 -34
126 -39 135 -47 84 -14 -85 -44 -225 -50 -225 -3 0 -36 114 -73 253 -37 138
-78 288 -90 332 -13 44 -32 114 -43 155 -99 367 -93 350 -124 350 -26 0 -30 5
-40 45 l-12 46 -120 -3 -121 -3 -9 -37 c-9 -36 -10 -37 -60 -40 l-52 -3 -22
-80 c-12 -44 -74 -280 -139 -525 -64 -245 -120 -452 -125 -460 -6 -11 -9 -7
-9 15 0 17 -11 77 -23 135 l-23 105 -16 -60 c-9 -33 -24 -90 -33 -127 -10 -38
-22 -68 -26 -68 -5 0 -9 4 -9 8 0 5 -9 51 -20 103 -12 52 -39 180 -61 284 -44
207 -55 260 -94 440 -14 66 -31 144 -37 173 -10 50 -12 52 -43 52 -30 0 -33 3
-41 43 l-9 42 -148 3 c-138 2 -148 1 -144 -15z"/>
<path d="M3950 5420 l0 -40 -59 0 c-45 0 -60 -4 -65 -16 -3 -9 -6 -342 -6
-741 0 -398 -2 -728 -5 -734 -4 -5 -62 -9 -131 -9 l-124 0 0 -40 0 -39 -57 -3
-58 -3 -3 -202 -2 -203 258 0 c199 0 271 3 317 15 177 46 277 152 304 325 7
41 11 353 11 852 l0 787 -52 3 -53 3 -3 43 -3 42 -135 0 -134 0 0 -40z"/>
<path d="M2790 2900 l0 -40 -60 0 -60 0 0 -995 0 -995 252 2 252 3 -3 416 c-1
229 1 419 6 421 4 3 167 3 361 0 l352 -4 0 -298 c0 -163 3 -352 7 -418 l6
-122 243 0 243 0 3 43 c2 23 2 468 0 989 l-2 947 -48 3 -47 3 -3 43 -3 42
-135 0 -134 0 0 -40 0 -40 -65 0 -65 0 0 -320 0 -320 -300 0 -300 0 0 34 0 35
-52 3 -53 3 -3 278 -2 277 -50 0 -50 0 0 45 0 45 -145 0 -145 0 0 -40z"/>
<path d="M720 2896 l0 -35 -57 -3 -58 -3 -3 -992 -2 -993 250 0 250 0 0 349
c0 193 4 352 9 355 4 3 74 3 153 -1 l145 -6 37 -66 c142 -259 196 -356 283
-503 l75 -128 269 0 c148 0 269 3 269 8 0 4 -10 23 -22 42 -63 103 -418 726
-418 735 0 5 33 23 73 38 96 37 157 84 216 163 57 78 87 159 101 272 19 147
-21 335 -93 442 -16 25 -52 82 -79 128 -56 95 -129 170 -196 204 l-47 23 -577
3 -578 3 0 -35z m906 -429 c66 -17 118 -58 146 -115 46 -95 22 -290 -39 -313
-13 -5 -137 -9 -274 -9 l-249 0 0 35 0 35 -55 0 -55 0 0 190 0 190 238 0 c163
0 253 -4 288 -13z"/>
</g>
</svg>
